<svg width="898" height="798" viewBox="0 0 898 798" fill="none" xmlns="http://www.w3.org/2000/svg">
<path d="M532.795 678.402C524.797 682.098 521.072 691.921 523.879 699.802C526.38 706.826 533.021 709.368 533.687 709.61C540.747 712.179 549.817 709.797 554.195 702.476C558.758 694.845 556.28 685.093 549.736 680.185C544.875 676.539 538.213 675.899 532.795 678.402Z" fill="#E9F3FD"/>
<path d="M523.879 640.061C531.904 640.357 539.929 640.655 547.953 640.952C547.885 610.721 548.438 579.491 549.736 547.328C552.03 490.523 556.415 436.636 562.219 385.939C547.061 386.236 531.904 386.534 516.745 386.831" fill="#00C3CD"/>
<path d="M234.092 89.0202C236.417 86.6408 243.375 89.9948 245.056 90.805C248.046 92.2466 253.109 95.3038 257.672 101.833C263.229 97.4204 270.396 97.5868 273.915 101.154C277.238 104.521 276.143 109.733 276.001 110.357C277.487 115.227 278.971 120.094 280.457 124.963C282.97 126.821 286.56 129.96 289.61 134.749C293.187 140.369 294.409 145.734 294.88 148.997C300.961 150.819 307.391 148.155 309.911 143.331C311.788 139.735 311.302 135.305 308.78 131.868C311.162 127.684 310.901 122.727 308.127 119.276C304.714 115.031 299.187 115.167 298.554 115.194C304.947 114.479 310.449 110.666 312.71 105.31C314.892 100.142 313.224 95.4967 312.732 94.2611C322.214 83.317 320.862 75.8328 320.522 74.291C317.806 61.9979 296.476 52.451 267.619 57.9197C274.445 48.5581 275.541 37.3068 270.534 29.0465C269.542 27.411 264.876 19.7784 255.468 19.0912C246.792 18.4578 240.573 24.2073 239.621 25.1158C238.703 24.0532 235.32 20.409 229.372 19.4882C222.436 18.4153 217.148 21.8402 216.115 22.5388C215.192 20.8438 213.155 17.7705 209.468 16.2533C203.512 13.802 195.648 16.4008 190.401 23.036C191.742 16.1049 188.607 10.1729 184.159 8.77004C180.129 7.49857 176.369 10.3676 176.134 10.5529C172.235 13.6224 170.979 19.7898 173.459 25.7113C174.868 19.9826 173.059 14.2293 169 11.4453C163.228 7.48628 155.08 11.0209 151.168 15.9035C146.444 21.7977 148.244 29.2138 148.492 30.1695C147.318 29.401 140.568 25.1252 134.226 27.4942C126.652 30.3245 121.733 41.8604 126.201 54.2433C121.765 54.6716 115.427 55.7587 108.369 58.7015C105.765 59.7868 98.4843 62.8846 92.3188 68.5093C80.5324 79.2634 71.2445 100.693 79.5956 117.317C81.1734 120.457 84.4442 125.544 91.4274 130.033C90.1398 130.916 80.9427 137.461 79.8357 149.65C78.8582 160.419 84.898 167.867 86.0777 169.267C76.8712 176.652 74.9153 188.393 79.7705 195.428C84.2239 201.88 92.9248 202.227 94.1027 202.258C90.3544 212.201 93.7983 223.309 102.128 229.007C109.446 234.013 119.352 234.033 127.094 229.007C126.245 227.819 125.168 226.025 124.419 223.657C123.489 220.719 123.466 218.161 123.578 216.551C128.112 211.735 128.434 208.62 127.985 206.716C126.82 201.777 119.707 201.791 113.719 193.341C112.199 191.197 110.014 188.029 111.044 185.316C112.04 182.691 115.147 182.861 116.394 179.967C117.664 177.018 115.118 175.272 115.502 171.942C116.111 166.664 123.509 162.362 129.768 161.242C136.108 160.107 136.737 163.05 144.927 163.025C153.816 162.997 164.262 159.496 165.435 154.108C165.885 152.034 164.991 149.544 166.326 148.759C167.167 148.263 168.088 148.826 170.798 148.943C171.517 148.974 172.374 148.938 173.459 148.759C173.459 148.759 177.713 148.052 181.403 145.371C190.65 138.655 188.707 122.667 188.618 122.008C187.388 112.861 182.192 106.741 179.702 104.176C192.155 107.654 198.592 111.806 202.194 115.105C203.921 116.687 208.362 121.138 213.259 120.375C214.987 120.106 215.82 119.36 216.862 119.716C218.641 120.322 219.869 123.737 218.53 134.623C220.277 134.116 225.317 132.416 228.769 127.622C232.689 122.178 233.014 114.891 229.744 108.698C231.553 106.456 233.644 103.11 234.092 98.8271C234.628 93.7024 232.449 90.7019 234.092 89.0202Z" fill="#00C3CD"/>
<path d="M129.769 235.252C127.388 236.721 127.46 245.332 133.336 249.518C137.649 252.591 143.624 252.235 147.602 248.626C135.956 236.08 131.513 234.175 129.769 235.252Z" fill="#CFF0FF"/>
<path d="M143.144 245.06C142.059 245.798 144.687 256.612 152.06 258.434C157.803 259.854 163.989 255.216 163.652 253.976C163.403 253.064 159.764 254.498 154.735 253.084C147.122 250.945 144.039 244.45 143.144 245.06Z" fill="#CFF0FF"/>
<path d="M202.884 527.713C201.189 528.136 192.903 530.025 181.66 532.874C171.621 535.418 163.293 537.674 157.41 539.304C164.645 556.423 171.805 574.26 178.809 592.804C187.009 614.513 194.41 635.648 201.1 656.111C224.059 656.381 270.992 653.323 311.665 621.337C320.079 614.719 327.143 607.715 333.065 600.828C344.358 580.024 355.653 559.218 366.947 538.413C383.888 507.205 400.83 475.997 417.771 444.789C390.222 461.585 366.526 473.077 350.006 480.456C297.787 503.777 251.062 515.675 202.884 527.713Z" fill="#00C3CD"/>
<path d="M123.527 514.338C120.855 515.832 126.333 542.056 146.71 558.029C154.506 564.14 162.444 567.153 168.11 568.73C164.543 558.922 160.976 549.113 157.41 539.305C153.903 537.828 149.192 535.566 144.035 532.172C129.774 522.786 125.233 513.384 123.527 514.338Z" fill="#E9F3FD"/>
<path d="M123.527 670.378C131.917 667.735 149.18 661.039 164.498 644.597C176.998 631.18 182.696 617.185 185.303 609.104C178.407 615.048 164.162 625.659 143.218 630.153C129.18 633.166 117.173 632.348 109.261 631.144C114.016 644.222 118.772 657.3 123.527 670.378Z" fill="#E9F3FD"/>
<path d="M688.834 288.751C690.005 292.144 693.646 301.202 703.1 307.476C708.215 310.87 713.193 312.23 716.475 312.826C720.338 307.178 724.203 301.532 728.067 295.884C714.989 293.506 701.912 291.128 688.834 288.751Z" fill="#E9F3FD"/>
<path d="M281.795 140.29C279.605 141.552 273.25 144.83 264.854 143.857C253.678 142.562 247.337 134.714 246.129 133.157" stroke="#063573" stroke-width="3.56664"/>
<path d="M236.594 152.891C235.869 156.004 234.623 163.304 237.564 171.703C241.936 184.187 252.275 189.714 254.532 190.855C252.364 195.559 250.197 200.263 248.029 204.967" stroke="#063573" stroke-width="3.56664"/>
<path d="M190.847 177.74C191.442 183.089 192.036 188.44 192.63 193.789" stroke="#063573" stroke-width="3.56664"/>
<path d="M264.854 159.016C265.449 164.663 266.043 170.309 266.637 175.957" stroke="#063573" stroke-width="3.56664"/>
<path d="M192.63 153.665C189.963 156.886 185.304 161.701 178.218 165.608C170.119 170.074 162.602 171.285 158.237 171.656" stroke="#063573" stroke-width="3.56664"/>
<path d="M142.732 228.714C140.903 222.778 141.902 217.737 144.405 216.528C147.675 214.949 152.742 220.281 153.817 221.414C158.798 226.656 161.773 235.157 159.287 237.471C157.744 238.907 154.302 237.773 152.33 236.405C148.291 233.604 146.681 227.236 148.801 220.534" stroke="#063573" stroke-width="3.56664"/>
<path d="M134.765 204.054C131.632 205.768 126.031 209.504 124.526 215.816C121.561 228.254 136.97 240.35 141.245 243.706C152.969 252.909 165.765 254.745 172.848 255.103" stroke="#063573" stroke-width="3.56664"/>
<path d="M298.396 162.804C303.78 185.208 304.318 203.849 303.865 216.299C303.128 236.57 302.212 255.265 289.972 272.714C286.213 278.072 279.721 287.084 267.842 292.097C252.744 298.469 238.443 294.372 228.415 291.5C202.496 284.075 185.604 266.949 177.389 257.131" stroke="#063573" stroke-width="3.56664"/>
<path d="M284.853 278.596C288.045 286.602 291.237 294.609 294.43 302.615C296.852 308.689 299.274 314.762 301.696 320.836" stroke="#063573" stroke-width="3.56664"/>
<path d="M195.305 274.93C204.331 286.706 209.814 297.506 213.138 305.246C220.078 321.404 219.473 328.56 218.488 332.887C217.306 338.082 214.94 342 213.138 344.479" stroke="#063573" stroke-width="3.56664"/>
<path d="M179.768 101.636C180.76 102.467 192.208 112.378 190.811 126.99C190.509 130.152 188.999 139.859 180.469 145.513C172.925 150.513 164.955 148.986 163.047 148.62C161.422 148.309 152.69 146.636 152.169 142.399C151.739 138.901 156.988 134.326 160.509 135.235C165.207 136.446 168.429 147.838 165.359 154.419C161.46 162.777 146.27 165.812 127.77 160.768" stroke="#63C2E9" stroke-width="3.56664"/>
<path d="M127.005 165.871C121.734 165.838 117.131 168.415 115.59 172.343C112.615 179.921 122.238 189.469 125.746 188.451C127.799 187.856 129.003 183.278 127.46 181.048C124.935 177.403 114.011 178.518 111.648 183.514C109.659 187.718 113.244 195.702 122.134 200.451" stroke="#63C2E9" stroke-width="3.56664"/>
<path d="M182.246 51.6919C184.86 49.7039 192.388 44.5698 202.228 45.6447C216.582 47.212 227.679 61.098 228.319 73.6378C228.402 75.2676 228.894 84.9166 222.952 88.2574C216.709 91.7664 205.941 86.8677 205.117 80.9698C204.453 76.2233 210.174 70.4398 215.686 70.0361C225.028 69.3526 236.412 83.9391 234.82 96.9639C233.865 104.772 228.009 113.967 220.267 114.286C215.524 114.482 209.712 111.361 209.058 107.237C208.236 102.051 215.657 95.8569 221.568 96.4893C229.552 97.3429 236.698 110.859 233.085 120.695C230.964 126.471 225.772 129.236 223.797 130.158" stroke="#63C2E9" stroke-width="3.56664"/>
<path d="M280.481 108.513C280.7 106.891 281.422 100.368 277.798 97.1038C271.13 91.099 254.438 100.341 254.926 105.264C255.219 108.221 261.857 111.098 264.009 109.321C266.86 106.967 263.505 95.0713 255.753 88.6156C250.743 84.4439 245.145 83.5827 242.459 83.3568" stroke="#63C2E9" stroke-width="3.56664"/>
<path d="M281.349 59.2111C284.472 57.5587 292.171 54.0751 301.517 55.9686C312.646 58.2242 326.554 68.1955 325.482 80.9698C324.624 91.2021 314.438 99.8462 304.964 99.711C300.176 99.643 293.841 97.307 293.28 93.8103C292.52 89.0704 302.273 81.5881 308.865 83.7557C316.241 86.1814 320.964 101.115 314.417 109.38C310.481 114.349 303.052 116.174 295.716 113.957" stroke="#63C2E9" stroke-width="3.56664"/>
<path d="M310.762 116.596C311.262 117.184 316.686 123.754 314.436 130.49C313.361 133.709 310.173 138.047 306.901 137.334C303.913 136.683 301.412 131.939 302.794 129.373C303.616 127.847 305.808 127.095 307.625 127.447C312.393 128.371 317.305 137.43 314.23 144.012C312.361 148.014 307.853 150.427 302.815 150.484" stroke="#63C2E9" stroke-width="3.56664"/>
<path d="M272.886 52.0266C273.569 51.1437 282.258 39.5161 277.51 26.1841C276.994 24.7339 272.222 11.9483 261.059 10.6655C250.948 9.50463 241.361 18.4409 240.685 27.4291C240.173 34.2355 244.737 41.5438 247.105 41.1884C249.529 40.8244 251.107 32.2068 249.066 25.0478C247.411 19.2425 242.784 12.3132 235.691 10.2231C222.136 6.22906 206.981 22.0861 208.876 29.5542C209.887 33.5387 216.133 36.6385 219.424 34.9473C225.608 31.77 225.365 9.62753 216.102 5.55504C210.905 3.27017 203.072 7.47595 197.441 14.9157" stroke="#63C2E9" stroke-width="3.56664"/>
<path d="M118.771 53.9636C108.46 49.339 101.472 50.6199 98.2319 51.5946C76.8835 58.0162 63.1762 91.6719 74.5334 113.84C78.847 122.259 85.918 127.297 91.3149 130.187C89.6322 129.66 81.4003 127.267 75.1725 131.824C67.1749 137.675 68.0135 150.939 72.0132 159.001C74.1496 163.308 77.1671 166.087 79.1967 167.656C77.082 168.553 71.3949 171.329 69.1025 177.44C65.7154 186.468 72.0368 196.639 78.6796 201.459C82.8391 204.477 87.1129 205.389 89.7022 205.703" stroke="#63C2E9" stroke-width="3.56664"/>
<path d="M87.1848 213.427C86.9541 214.743 85.2109 225.675 92.3652 233.439C99.5119 241.196 112.607 242.611 123.081 235.591C120.842 241.931 122.555 248.949 127.271 253.118C132.869 258.07 139.948 256.574 140.709 256.4C140.911 257.379 142.211 263.21 147.417 266.204C152.725 269.256 159.909 268.105 164.839 263.096" stroke="#63C2E9" stroke-width="3.56664"/>
<path d="M191.474 16.3347C191.492 8.6926 187.714 2.73985 183.919 2.06866C179.541 1.29349 172.772 7.12713 172.255 17.2781C171.964 18.3416 170.186 24.9901 172.007 26.0158C173.686 26.9621 178.65 23.2526 178.737 19.493C178.872 13.6131 167.155 4.37622 157.311 7.87867C150.323 10.3649 146.877 18.3463 147.114 24.4239C147.252 27.9698 148.712 32.6067 150.417 32.7059C152.222 32.8118 154.998 27.8705 153.741 24.6611C151.609 19.2227 136.606 15.4782 128.846 23.0683C123.897 27.9093 122.816 36.4608 126.121 44.3136" stroke="#63C2E9" stroke-width="3.56664"/>
<path d="M291.788 295.989C287.294 299.702 277.982 306.24 264.747 307.732C237.535 310.8 218.211 289.783 216.021 287.324C224.209 291.247 231.397 293.317 236.601 294.477C245.104 296.372 251.518 297.803 259.555 295.884C266.272 294.279 271.096 291.059 273.716 289.278C278.815 285.809 282.354 281.999 284.615 279.172C287.006 284.777 289.397 290.384 291.788 295.989Z" fill="#063573"/>
<path d="M210.464 350.72C216.93 354.542 233.181 362.88 254.155 360.528C257.63 360.138 291.279 355.819 304.979 327.537C310.187 316.785 310.567 306.585 310.328 300.788" stroke="#063573" stroke-width="3.56664"/>
<path d="M192.303 357.854C198.599 362.513 214.657 373.094 237.956 374.795C244.954 375.305 275.025 376.652 299.777 355.178C325.683 332.704 325.559 302.761 325.457 298.112" stroke="#063573" stroke-width="3.56664"/>
<path d="M221.163 249.964C221.603 249.067 223.891 244.636 229.188 242.831C235.638 240.633 241.061 244.198 241.671 244.613" stroke="#063573" stroke-width="3.56664"/>
<path d="M182.792 361.42C172.175 365.508 152.245 373.159 126.677 382.82C91.9814 395.93 83.5575 398.89 74.367 406.895C59.9271 419.469 54.4167 435.064 47.7361 464.852C37.3412 511.206 43.2429 529.718 31.5671 577.2C27.3897 594.189 22.5609 607.763 19.2031 616.433C38.2979 620.022 55.5511 622.959 70.562 625.349C113.726 632.225 124.293 632.355 135.237 630.699C147.979 628.771 163.813 624.029 180.89 612.866" stroke="#063573" stroke-width="3.56664"/>
<path d="M99.2916 640.507C110.319 665.613 121.201 692.377 131.629 720.755C141.37 747.264 149.872 772.884 157.309 797.438" stroke="#063573" stroke-width="3.56664"/>
<path d="M112.411 502.301C116.557 507.896 122.705 514.993 131.433 521.918C140.915 529.44 150.159 534.15 157.113 537.076" stroke="#063573" stroke-width="3.56664"/>
<path d="M134.286 471.093C149.56 511.694 162.346 546.749 172.33 574.525C197.688 645.077 209.669 678.675 219.885 725.213C223.186 740.254 225.488 752.79 226.959 761.325" stroke="#063573" stroke-width="3.56664"/>
<path d="M166.624 533.509C184.024 530.132 210.218 524.672 241.761 516.567C290.157 504.132 324.039 495.109 363.976 475.106C386.219 463.965 403.563 452.79 415.098 444.79" stroke="#063573" stroke-width="3.56664"/>
<path d="M206.004 653.881C222.843 651.93 244.929 647.62 269.311 637.832C287.843 630.392 303.014 621.668 314.786 613.757" stroke="#063573" stroke-width="3.56664"/>
<path d="M329.053 296.33C330.313 296.048 332.957 295.449 336.269 294.634C364.002 287.814 373.534 277.594 401.972 270.305C404.989 269.531 406.72 269.087 408.853 268.688C423.611 265.927 449.835 266.762 487.321 296.775" stroke="#063573" stroke-width="3.56664"/>
<path d="M630.431 367.661C646.184 337.048 661.936 306.435 677.688 275.822" stroke="#063573" stroke-width="3.56664"/>
<path d="M724.055 304.355C715.22 320.887 709.26 351.69 701.318 374.349C690.683 404.693 686.606 422.468 678.581 444.343" stroke="#063573" stroke-width="3.56664"/>
<path d="M686.605 258.88C687.753 250.77 690.692 239.852 699.089 231.239C707.108 223.013 715.574 221.54 725.838 216.973C736.271 212.33 750.135 203.79 764.178 186.657C765.077 188.89 766.236 192.661 765.961 197.357C765.457 205.989 760.467 211.683 758.828 213.407" stroke="#063573" stroke-width="3.56664"/>
<path d="M730.296 228.563C742.895 224.359 753.37 221.956 760.612 220.539C773.721 217.973 776.83 218.133 788.253 215.189C799.446 212.305 798.471 211.484 814.111 207.164C826.41 203.766 834.22 202.283 843.535 203.597C846.975 204.082 849.75 204.826 851.56 205.38" stroke="#063573" stroke-width="3.56664"/>
<path d="M810.545 217.864C810.545 217.864 834.277 211.309 854.236 206.273C855.368 205.987 858.991 205.117 863.153 206.273C866.248 207.132 870.507 209.351 870.286 211.622C870.24 212.098 869.937 213.192 867.611 214.298" stroke="#063573" stroke-width="3.56664"/>
<path d="M790.929 224.105C791.215 228.072 791.187 233.295 790.037 239.264C788.442 247.543 785.338 253.894 782.904 257.989" stroke="#063573" stroke-width="3.56664"/>
<path d="M713.355 293.654C727.906 296.946 739.036 295.961 746.346 294.546C761.87 291.541 767.081 285.259 792.711 274.038C806.312 268.083 807.346 269.041 823.027 262.446C836.805 256.652 847.801 251.147 855.127 247.288C859.733 244.02 866.977 238.416 865.827 235.696C864.691 233.008 855.837 234.269 847.994 235.696C834.451 238.161 814.439 242.854 788.254 252.637" stroke="#063573" stroke-width="3.56664"/>
<path d="M800.736 231.239C814.241 228.432 827.916 225.464 841.752 222.322C850.763 220.277 859.68 218.195 868.501 216.08C872.93 215.815 876.636 217.28 877.418 219.647C878.252 222.175 875.517 225.015 872.959 227.672C869.691 231.066 866.242 232.927 864.043 233.914" stroke="#063573" stroke-width="3.56664"/>
<path d="M432.93 360.974C435.308 372.863 437.685 384.751 440.064 396.641" stroke="#063573" stroke-width="3.56664"/>
<path d="M524.77 642.736C524.77 642.736 515.854 602.611 513.178 510.772C510.503 418.932 516.745 386.832 516.745 386.832C516.745 386.832 531.904 382.374 562.219 383.265C562.219 383.265 544.387 579.428 547.953 642.736H536.362" stroke="#63C2E9" stroke-width="3.56664"/>
<path fill-rule="evenodd" clip-rule="evenodd" d="M541.143 674.318C535.292 673.818 529.561 681.031 527.403 686.912C525.185 692.954 524.479 703.738 531.982 708.667C538.647 713.044 548.367 710.558 552.592 705.233C560.338 695.47 550.454 675.114 541.143 674.318Z" stroke="#63C2E9" stroke-width="3.56664"/>
<path fill-rule="evenodd" clip-rule="evenodd" d="M218.075 785.139C322.982 602.734 427.889 420.331 532.795 237.926C643.147 419.567 753.498 601.208 863.849 782.849C648.592 783.612 433.333 784.375 218.075 785.139Z" stroke="#063573" stroke-width="3.56664" stroke-linecap="round" stroke-linejoin="round"/>
<path d="M2.26276 713.177C2.69477 715.116 5.27931 725.872 15.6373 731.902C16.9797 732.683 30.2011 740.094 41.495 732.793C52.1678 725.893 55.5814 709.467 50.4113 704.26C47.6859 701.515 42.0187 701.342 39.2659 703.814C35.4855 707.209 37.5416 715.277 40.1573 719.864C46.111 730.303 60.257 731.981 63.3406 732.347C89.6691 735.47 110.846 707.95 113.273 704.705" stroke="#32CEDA" stroke-width="3.56664" stroke-linecap="round" stroke-linejoin="round"/>
<path d="M466.813 97.9368C469.803 100.167 484.55 110.695 502.479 106.853C522.151 102.638 536.854 83.0072 533.688 77.4288C531.301 73.223 517.126 74.1315 512.288 80.9955C506.243 89.5716 514.733 107.498 527.447 114.878C538.84 121.493 554.112 119.918 566.68 111.311" stroke="#00C3CD" stroke-width="3.56664" stroke-linecap="round" stroke-linejoin="round"/>
<path d="M896 515.026C891.212 515.443 865.868 517.94 853.66 531.333C845.373 540.426 844.275 553.295 849.838 554.833C855.005 556.26 868.651 548.673 870.551 540.007C872.535 530.959 861.097 523.545 851.577 520.75C835.947 516.163 814.081 520.682 798.059 532.461" stroke="#37D0DB" stroke-width="3.56664" stroke-linecap="round" stroke-linejoin="round"/>
</svg>
