<svg width="153" height="126" viewBox="0 0 153 126" fill="none" xmlns="http://www.w3.org/2000/svg">
<path d="M71.8091 88.3501L65.1727 92.332C53.0944 82.1119 45.9269 67.1135 44.4669 48.0005C43.0069 28.8875 50.1742 12.4291 59.3325 5.52716C68.4909 -1.37475 82.2947 -3.10023 95.3021 7.91628C105.708 16.7295 108.044 36.63 107.911 45.4786L99.5495 42.5586C97.0276 23.8438 86.0111 15.3491 76.3218 15.3491C66.6736 15.3491 54.8197 21.7201 53.4925 46.1423C52.3991 66.2622 61.3234 77.9973 71.8091 88.3501Z" fill="#2161FF"/>
<path d="M57.3572 52.7775L57.3572 44.9501C73.7997 42.0264 86.8222 41.3439 104.593 48.5301C122.363 55.7164 138.715 71.6355 140.828 82.907C142.941 94.1785 138.704 105.716 124.502 110.78C107.38 116.886 87.6403 107 79.7725 102.949L86.6675 97.8657C103 104.011 117.733 103.48 124.502 91.6671C128.26 85.1109 127.56 70.5275 106.272 58.4848C88.7344 48.5637 71.8087 49.0611 57.3572 52.7775Z" fill="#2161FF"/>
<path d="M98.2176 59.0174L105.252 62.6011C101.403 79.0595 89.3871 92.1278 73.132 102.287C55.0807 113.569 34.6376 114.795 24.4203 109.587C14.203 104.38 7.29853 92.1997 11.811 79.8559C17.1484 65.2557 32.4686 55.6084 40.4804 51.85L41.9404 60.0792C28.2693 69.2375 22.2965 79.6537 27.8711 92.1997C30.0657 97.1387 41.5981 106.648 64.1319 97.1387C80.8301 90.0919 91.9793 79.8558 98.2176 59.0174Z" fill="#2161FF"/>
</svg>
