<svg width="326" height="319" viewBox="0 0 326 319" fill="none" xmlns="http://www.w3.org/2000/svg">
<g opacity="0.1">
<path d="M11.6179 168.144C11.6179 250.695 79.1964 317.62 162.564 317.62C245.931 317.62 313.51 250.695 313.51 168.144C313.51 85.5937 245.931 18.6689 162.564 18.6689C79.1964 18.6689 11.6179 85.5937 11.6179 168.144Z" stroke="#1B4AF0" stroke-width="0.5"/>
<ellipse rx="18.5" ry="19" transform="matrix(-1 0 0 1 164.5 19)" fill="#1B4AF0"/>
<ellipse rx="18.5" ry="19" transform="matrix(-1 0 0 1 280.5 78)" fill="#1B4AF0"/>
<ellipse rx="18.5" ry="19" transform="matrix(-1 0 0 1 307.5 205)" fill="#1B4AF0"/>
<ellipse rx="18.5" ry="19" transform="matrix(-1 0 0 1 224.5 300)" fill="#1B4AF0"/>
<ellipse rx="18.5" ry="19" transform="matrix(-1 0 0 1 97.5 300)" fill="#1B4AF0"/>
<ellipse rx="18.5" ry="19" transform="matrix(-1 0 0 1 18.5 199)" fill="#1B4AF0"/>
<ellipse rx="18.5" ry="19" transform="matrix(-1 0 0 1 43.5 78)" fill="#1B4AF0"/>
</g>
</svg>
