<svg width="417" height="381" viewBox="0 0 417 381" fill="none" xmlns="http://www.w3.org/2000/svg">
<g clip-path="url(#clip0_397_905)">
<path d="M186.937 219.07C188.782 216.674 189.986 213.848 190.435 210.857C190.939 207.217 192.259 202.574 195.598 199.393C200.673 194.548 201.423 174.209 201.527 166.664C201.555 163.815 202.003 160.985 202.858 158.266C204.374 153.497 207.479 146.895 213.501 143.708C219.638 140.462 239.233 139.131 244.948 143.889C256.582 153.596 254.956 166.336 255.137 168.356C256.019 177.893 255.477 184.852 260.327 190.836C265.178 196.82 270.664 204.14 269.235 211.553C267.806 218.966 280.568 229.899 266.601 234.459C252.635 239.02 238.362 242.173 222.803 240.931C209.017 239.836 190.167 237.596 186.461 228.475C184.621 223.915 185.546 220.92 186.937 219.07Z" fill="#F2F2F2"/>
<path d="M190.414 217.881C191.06 216.951 191.897 215.56 193.387 214.832C194.876 214.104 197.86 211.969 212.576 218.035C233.594 226.701 250.9 216.13 252.542 215.921C254.185 215.713 269.027 211.06 268.617 220.783C268.206 230.506 250.686 235.795 245.332 236.009C239.978 236.222 217.925 238.335 207.008 235.166C196.091 231.996 191.936 227.813 191.197 226.773C190.386 225.634 187.687 221.801 190.414 217.881Z" fill="#C2C2C4"/>
<path d="M269.432 288.622H268.682C268.187 288.632 267.696 288.542 267.237 288.357C266.778 288.172 266.361 287.897 266.011 287.547C265.661 287.198 265.384 286.781 265.199 286.322C265.014 285.863 264.923 285.372 264.932 284.877L265.014 280.207C265.018 279.932 265.104 279.664 265.26 279.438C265.416 279.211 265.635 279.035 265.89 278.932L266.235 278.795C266.467 278.703 266.671 278.551 266.824 278.354C266.977 278.157 267.075 277.922 267.107 277.674C267.139 277.427 267.104 277.175 267.005 276.945C266.907 276.716 266.748 276.517 266.547 276.369C266.32 276.216 266.076 276.091 265.819 275.997C263.536 275.132 258.701 272.324 246.016 271.026C239.096 270.32 235.537 270.09 233.731 270.024C233.519 270.016 233.311 269.96 233.124 269.861C232.937 269.761 232.775 269.621 232.65 269.449C232.525 269.278 232.441 269.081 232.403 268.872C232.365 268.663 232.376 268.449 232.433 268.245C232.523 267.923 232.726 267.644 233.004 267.458C233.282 267.272 233.617 267.192 233.95 267.232C238.422 267.779 254.256 269.712 259.413 270.927C262.475 271.697 265.399 272.939 268.08 274.607C268.594 274.933 269.028 275.371 269.351 275.887C269.674 276.403 269.878 276.985 269.947 277.59C269.964 277.797 270.027 277.997 270.131 278.176C270.235 278.355 270.378 278.508 270.549 278.625C271.058 278.979 271.61 279.266 272.191 279.479C273.056 279.769 273.029 282.841 272.859 285.326C272.802 286.204 272.419 287.029 271.785 287.639C271.151 288.249 270.312 288.599 269.432 288.622Z" fill="#FBFBFB"/>
<path d="M228.579 243.164L228.469 284.614C228.469 284.876 228.366 285.126 228.181 285.311C227.996 285.496 227.745 285.6 227.484 285.6H227.265C227.133 285.6 227.003 285.626 226.881 285.677C226.76 285.729 226.65 285.804 226.558 285.898C226.466 285.992 226.394 286.104 226.346 286.227C226.299 286.35 226.276 286.481 226.279 286.613L226.455 293.609C226.476 294.438 226.816 295.227 227.405 295.81C227.993 296.394 228.785 296.727 229.614 296.741L231.804 296.774C232.251 296.783 232.696 296.699 233.11 296.53C233.525 296.36 233.9 296.108 234.214 295.788C234.527 295.468 234.771 295.087 234.932 294.669C235.093 294.251 235.167 293.805 235.149 293.358L234.897 286.552C234.888 286.297 234.781 286.054 234.597 285.877C234.413 285.699 234.167 285.6 233.911 285.6C233.782 285.6 233.653 285.574 233.533 285.524C233.413 285.474 233.304 285.401 233.213 285.309C233.121 285.217 233.049 285.108 232.999 284.988C232.95 284.867 232.925 284.739 232.926 284.609L233.041 242.102C233.042 241.971 233.016 241.842 232.966 241.721C232.917 241.6 232.843 241.49 232.75 241.398C232.658 241.306 232.547 241.233 232.426 241.184C232.305 241.134 232.175 241.11 232.044 241.111H229.532C229.399 241.112 229.268 241.139 229.146 241.192C229.024 241.244 228.914 241.321 228.822 241.417C228.731 241.513 228.66 241.627 228.613 241.751C228.567 241.875 228.546 242.008 228.552 242.14L228.579 243.164Z" fill="#FBFBFB"/>
<path d="M228.611 273.21C228.611 273.21 195.122 286.695 189.839 291.168C184.555 295.641 183.69 298.471 183.931 299.67C183.931 299.796 184.134 299.889 184.391 299.95C185.026 300.127 185.582 300.512 185.973 301.043C186.363 301.574 186.563 302.22 186.543 302.879L186.422 309.93C186.412 310.453 186.198 310.95 185.826 311.317C185.453 311.683 184.952 311.889 184.429 311.89H180.652C180.127 311.89 179.624 311.684 179.25 311.317C178.876 310.949 178.662 310.449 178.653 309.925L178.533 302.917C178.519 302.195 178.768 301.492 179.233 300.939C179.698 300.386 180.348 300.021 181.062 299.911H181.128C181.128 299.911 182.442 294.612 184.473 292.794C186.504 290.976 190.069 286.919 204.09 280.82C218.111 274.722 228.6 270.878 228.6 270.878L228.611 273.21Z" fill="#C2C2C4"/>
<path d="M232.871 272.69C232.868 272.909 232.931 273.123 233.051 273.305C233.171 273.488 233.343 273.63 233.544 273.714C238.143 275.685 264.871 287.242 269.437 291.327C274.436 295.799 275.252 298.63 275.027 299.829C274.978 300.103 274.239 300.212 273.576 300.251C273.289 300.265 273.018 300.392 272.824 300.604C272.629 300.816 272.526 301.096 272.536 301.384L272.657 308.862C272.67 309.715 273.017 310.528 273.625 311.126C274.232 311.725 275.051 312.06 275.903 312.06H276.85C277.695 312.06 278.505 311.728 279.108 311.136C279.71 310.544 280.055 309.74 280.07 308.895L280.195 301.444C280.198 301.179 280.105 300.922 279.933 300.721C279.761 300.52 279.521 300.387 279.259 300.349L278.433 300.212C278.221 300.181 278.023 300.088 277.863 299.945C277.703 299.801 277.589 299.615 277.535 299.407C277.13 297.913 276.04 294.387 274.545 292.964C272.624 291.135 269.251 287.089 255.98 280.99C245.813 276.32 237.656 272.98 234.404 271.683C234.235 271.61 234.05 271.581 233.866 271.599C233.683 271.616 233.507 271.68 233.355 271.783C233.202 271.887 233.078 272.028 232.995 272.192C232.911 272.356 232.871 272.539 232.876 272.723L232.871 272.69Z" fill="#C2C2C4"/>
<path d="M49.2556 304.533L49.8031 209.27H62.3953V305.08L49.2556 304.533Z" fill="white"/>
<path d="M340.014 207.573L340.518 305.628H351.467L351.708 207.973L340.014 207.573Z" fill="white"/>
<path d="M10.9314 197.773V209.27L387.601 208.175V198.321L10.9314 197.773Z" fill="white"/>
<path d="M10.9314 197.773L37.7581 189.561L356.942 190.108L387.601 198.321L10.9314 197.773Z" fill="#F6C32C"/>
<path d="M182.01 194.592L188.322 190.749L217.394 190.557L213.008 194.291L182.01 194.592Z" fill="#F8F8FF"/>
<path d="M37.2546 169.249C37.2546 169.249 32.497 169.03 31.8838 170.563C31.2706 172.096 32.9787 193.01 33.7233 194.247C34.4679 195.484 42.0506 195.846 44.1967 195.846C44.1967 195.846 52.1407 195.139 52.5294 194.597C52.9181 194.055 58.3054 172.43 56.5425 169.539C54.7796 166.648 37.5283 169.32 37.5283 169.32" fill="#F2F2F2"/>
<path d="M31.4951 174.165C31.4951 174.165 46.2772 175.298 48.0237 174.8C49.7702 174.302 49.1953 169.873 49.1953 169.873L56.5425 169.544C56.5425 169.544 56.5426 173.804 56.0443 174.307C55.489 174.974 55.0637 175.739 54.7906 176.563C54.7906 176.815 51.6864 194.931 51.6864 194.931C51.6864 194.931 46.9287 195.665 46.2991 195.588C45.5545 195.495 48.281 180.603 48.281 179.569C48.281 178.534 48.281 176.563 47.5309 176.563C46.7809 176.563 32.289 177.001 32.2014 175.38C32.0757 174.924 31.8321 174.508 31.4951 174.176" fill="#C2C2C3"/>
<path d="M37.3149 169.72C37.3149 169.72 33.1923 166.823 31.0024 166.561C28.8124 166.298 26.2612 166.019 24.0712 165.674C21.8813 165.329 19.0891 164.354 19.1439 163.073C19.1986 161.792 19.4614 161.179 20.748 160.418C21.8328 159.712 23.0618 159.257 24.345 159.087C25.3085 159 35.1961 161.567 39.3187 167.705L40.9611 169.72H37.3149Z" fill="#C2C2C3"/>
<path d="M23.053 162.564C23.053 162.564 26.8416 162.515 28.9165 163.188C30.5407 163.794 32.115 164.526 33.6249 165.378L39.8279 169.698" fill="#C2C2C3"/>
<path d="M23.053 162.564C23.053 162.564 26.8416 162.515 28.9165 163.188C30.5407 163.794 32.115 164.526 33.6249 165.378L39.8279 169.698" stroke="#BABABA" stroke-width="0.410614" stroke-miterlimit="10" stroke-linecap="round"/>
<path d="M41.6676 169.555C41.6676 169.555 36.8716 163.04 35.0047 161.206C33.1377 159.372 30.9533 157.275 29.1521 155.359C27.3509 153.443 25.0788 150.694 26.0369 149.566C26.995 148.439 27.6793 147.672 29.4258 147.924C30.7912 148.07 32.0988 148.554 33.2308 149.331C34.1999 149.955 42.9049 158.261 44.1805 167.803L45.4343 169.736L41.6676 169.555Z" fill="#C2C2C3"/>
<path d="M30.3948 151.784C30.3948 151.784 34.1286 154.018 35.5959 156.164C36.981 158.168 39.1765 161.754 39.1765 161.754L41.6675 168.592" stroke="#BABABA" stroke-width="0.410614" stroke-miterlimit="10" stroke-linecap="round"/>
<path d="M44.0546 169.851C44.0546 169.851 38.4538 157.691 37.4081 155.288C36.3624 152.884 32.0865 149.265 31.1394 146.813C30.1922 144.36 29.59 142.575 30.5919 141.228C31.5938 139.882 34.1725 138.765 35.8094 139.586C37.3588 140.341 39.3736 142.641 40.2386 143.807C40.923 144.727 45.5108 161.244 45.1331 165.055L46.0091 169.933L44.0546 169.851Z" fill="#F2F2F2"/>
<path d="M34.1887 144.119C34.1887 144.119 37.4025 148.258 38.377 150.689C39.472 153.427 40.5669 158.644 40.4246 157.807L43.7807 169.068" stroke="#BABABA" stroke-width="0.410614" stroke-miterlimit="10" stroke-linecap="round"/>
<path d="M40.9831 169.785C40.9831 169.785 36.0558 164.163 33.6523 163.073C31.2488 161.984 28.5169 160.752 26.1682 159.58C23.8195 158.409 20.9999 156.421 21.4762 155.228C21.9526 154.034 22.4453 153.552 24.137 153.328C25.6198 153.077 27.1374 153.118 28.6045 153.448C29.6995 153.733 39.9922 159.953 42.6365 167.338L43.8574 169.884L40.9831 169.785Z" fill="#F2F2F2"/>
<path d="M26.0205 156.24C26.0205 156.24 30.2854 157.642 32.3987 159.076C34.0121 160.257 35.5415 161.548 36.9757 162.941L41.7114 169.851" stroke="#BABABA" stroke-width="0.410614" stroke-miterlimit="10" stroke-linecap="round"/>
<path d="M53.8709 169.911C53.8709 169.911 58.3328 167.174 60.7035 166.894C63.0741 166.615 65.8225 166.38 68.1931 166.046C70.5637 165.712 73.5858 164.787 73.5256 163.56C73.4653 162.334 73.1861 161.754 71.79 161.02C70.5916 160.338 69.2674 159.906 67.8974 159.75C66.8517 159.668 56.1539 162.115 51.6919 167.962L49.8906 169.889L53.8709 169.911Z" fill="#C2C2C3"/>
<path d="M69.31 163.073C69.31 163.073 65.2148 163.024 62.9646 163.67C61.2197 164.24 59.5182 164.936 57.873 165.75L51.9219 169.747" fill="#C2C2C3"/>
<path d="M69.31 163.073C69.31 163.073 65.2148 163.024 62.9646 163.67C61.2197 164.24 59.5182 164.936 57.873 165.75L51.9219 169.747" stroke="#BABABA" stroke-width="0.410614" stroke-miterlimit="10" stroke-linecap="round"/>
<path d="M49.1681 169.752C49.1681 169.752 54.3528 163.533 56.373 161.781C58.3932 160.029 60.7529 158.025 62.7074 156.196C64.6619 154.368 67.1146 151.745 66.0744 150.661C65.0342 149.577 64.3006 148.849 62.4063 149.079C60.9505 149.211 59.5431 149.669 58.2892 150.42C57.2435 151.012 47.8213 158.95 46.4416 168.06L45.0894 169.905L49.1681 169.752Z" fill="#C2C2C3"/>
<path d="M61.3659 152.764C61.3659 152.764 57.3255 154.894 55.7378 156.925C54.2377 158.841 51.8671 162.263 51.8671 162.263L49.168 168.789" stroke="#BABABA" stroke-width="0.410614" stroke-miterlimit="10" stroke-linecap="round"/>
<path d="M46.5784 170.059C46.5784 170.059 52.639 158.447 53.7668 156.148C54.8947 153.848 59.5264 150.41 60.5502 148.056C61.574 145.701 62.2255 144.004 61.1524 142.723C60.0793 141.442 57.2817 140.369 55.5078 141.135C53.8325 141.858 51.6754 144.054 50.7119 145.165C49.9673 146.046 45.0071 161.814 45.4122 165.46L44.4651 170.119L46.5784 170.059Z" fill="#F2F2F2"/>
<path d="M46.0035 169.911C46.0035 169.911 46.4908 158.584 47.646 154.899C48.4289 152.458 49.1954 148.33 50.2192 146.003C51.2429 143.676 49.6717 140.615 48.6205 139.329C47.5693 138.042 44.7881 138.289 42.9923 139.05C41.317 139.772 40.3535 142.11 40.1399 143.358C39.9483 144.497 43.9723 158.168 43.5453 163.172L43.8902 169.983L46.0035 169.911Z" fill="#C2C2C3"/>
<path d="M57.2542 145.455C57.2542 145.455 53.7777 149.408 52.7211 151.724C51.5276 154.346 50.3395 159.323 50.5311 158.501L46.5947 169.561" stroke="#BABABA" stroke-width="0.410614" stroke-miterlimit="10" stroke-linecap="round"/>
<path d="M49.9067 169.972C49.9067 169.972 55.2666 164.601 57.8343 163.561C60.402 162.52 63.3913 161.371 65.9316 160.226C68.4719 159.082 71.5214 157.21 71.0067 156.071C70.4921 154.932 69.961 154.472 68.127 154.253C66.5209 154.014 64.8856 154.053 63.2927 154.368C62.0882 154.642 50.9743 160.577 48.1109 167.634L46.7915 170.065L49.9067 169.972Z" fill="#F2F2F2"/>
<path d="M66.0962 157.04C66.0962 157.04 61.4754 158.381 59.1924 159.744C57.4688 160.862 55.8226 162.095 54.265 163.434L49.042 169.227" stroke="#BABABA" stroke-width="0.410614" stroke-miterlimit="10" stroke-linecap="round"/>
<path d="M44.8757 141.469C44.8757 141.469 45.801 151.176 45.2645 153.788C45.04 154.883 45.1495 161.71 45.1495 161.71L44.9579 169.304" stroke="#BABABA" stroke-width="0.410614" stroke-miterlimit="10" stroke-linecap="round"/>
<path d="M194.887 137.144H134.729V184.37H194.887V137.144Z" fill="#BABABA"/>
<path d="M163.532 164.743C165.528 164.743 167.146 163.125 167.146 161.13C167.146 159.134 165.528 157.516 163.532 157.516C161.537 157.516 159.919 159.134 159.919 161.13C159.919 163.125 161.537 164.743 163.532 164.743Z" fill="#F5F5FC"/>
<path d="M159.771 183.248C159.771 183.248 161.282 187.229 159.558 188.345C157.833 189.462 147.184 193.661 147.184 193.661C147.184 193.661 146.396 194.926 148.279 195.331C149.96 195.698 171.553 195.408 176.201 195.331C176.525 195.354 176.848 195.275 177.125 195.106C177.403 194.938 177.621 194.687 177.751 194.39C177.86 194.001 177.723 193.574 176.896 193.295C175.468 192.78 170.212 189.917 167.912 188.679C167.102 188.241 166.883 187.398 166.724 186.626C166.461 185.383 166.264 184.009 167.14 183.747C168.509 183.336 159.853 183.872 159.853 183.872" fill="#BABABA"/>
<path d="M114.155 132.299L270.637 132.047L270.319 105.872L105.285 107.148L105.187 132.299H114.155Z" fill="#F2F2F2"/>
<path d="M192.428 110.57V128.593L266.054 128.341V110.821L192.428 110.57Z" fill="#C2C2C4"/>
<path d="M113.728 110.57V128.593L187.353 128.341V110.821L113.728 110.57Z" fill="#C2C2C4"/>
<path d="M113.733 114.911H117.571L117.609 128.636L113.728 128.593L113.733 114.911Z" fill="#BABABA"/>
<path d="M117.642 117.314H120.226L120.319 128.576L117.609 128.636L117.642 117.314Z" fill="#F5F5FC"/>
<path d="M182.579 114.807H184.834L184.856 128.527L182.579 128.488V114.807Z" fill="#BABABA"/>
<path d="M184.89 117.21H187.474L187.567 128.472L184.857 128.527L184.89 117.21Z" fill="#F5F5FC"/>
<path d="M120.434 115.551H123.018L123.111 128.609L120.401 128.674L120.434 115.551Z" fill="#F5F5FC"/>
<path d="M122.963 118.688L124.288 117.626L130.995 127.421L129.55 128.592L122.963 118.688Z" fill="#BABABA"/>
<path d="M154.269 128.527H170.409L170.327 126.715L154.269 126.802V128.527Z" fill="#BABABA"/>
<path d="M156.984 126.753H173.13L173.042 124.941L156.984 125.028V126.753Z" fill="#F2F2F2"/>
<path d="M195.013 114.254H197.279L197.301 128.697L195.007 128.653L195.013 114.254Z" fill="#BABABA"/>
<path d="M197.328 117.331H199.907L200 128.587L197.29 128.647L197.328 117.331Z" fill="#F5F5FC"/>
<path d="M261.16 114.736H263.415L263.437 128.456L261.16 128.417V114.736Z" fill="#BABABA"/>
<path d="M263.405 116.942L266.093 116.97L266.197 128.346L263.448 128.385L263.405 116.942Z" fill="#F5F5FC"/>
<path d="M258.581 118.086H261.165L261.269 128.45L258.515 128.483L258.581 118.086Z" fill="#F5F5FC"/>
<path d="M192.407 115.584H194.991L195.084 128.642L192.374 128.708L192.407 115.584Z" fill="#F5F5FC"/>
<path d="M219.184 118.727L220.509 117.665L227.215 127.459L225.77 128.631L219.184 118.727Z" fill="#BABABA"/>
<path d="M208.245 128.565H224.39L224.303 126.753L208.245 126.841V128.565Z" fill="#BABABA"/>
<path d="M207.358 126.857H223.498L223.411 125.045L207.358 125.133V126.857Z" fill="#F2F2F2"/>
<path d="M270.489 104.542L270.33 83.5674H417.051L417.412 133.684L270.615 134.883L270.489 106.408" fill="#F2F2F2"/>
<path d="M165.99 92.3487C165.99 92.3487 164.578 91.8779 164.463 91.5275C164.348 91.1771 163.877 89.1733 164.813 89.1733H172.817C172.817 89.1733 174.11 91.2921 172.467 91.7629C170.825 92.2338 172.232 93.055 172.702 93.055C173.173 93.055 174.23 93.055 174.465 93.6408C174.701 94.2266 174.684 106.572 174.684 106.572H162.815V94.588C162.812 94.4175 162.843 94.2481 162.907 94.09C162.971 93.9319 163.066 93.7883 163.187 93.6677C163.307 93.5471 163.451 93.4521 163.609 93.3882C163.767 93.3243 163.936 93.2929 164.107 93.2959C165.404 93.2904 166.346 92.94 165.99 92.3487Z" fill="#F2F2F2"/>
<path d="M172.894 97.0957H164.567V102.258H172.894V97.0957Z" fill="#BABABA"/>
<path d="M179.557 92.3487C179.557 92.3487 178.144 91.8779 178.029 91.5275C177.915 91.1771 177.444 89.1733 178.38 89.1733H186.384C186.384 89.1733 187.676 91.2921 186.034 91.7629C184.391 92.2338 185.798 93.055 186.269 93.055C186.74 93.055 187.797 93.055 188.032 93.6408C188.267 94.2266 188.251 106.572 188.251 106.572H176.382V94.588C176.379 94.4175 176.41 94.2481 176.474 94.09C176.538 93.9319 176.633 93.7883 176.753 93.6677C176.874 93.5471 177.018 93.4521 177.176 93.3882C177.334 93.3243 177.503 93.2929 177.674 93.2959C179.01 93.2904 179.929 92.94 179.557 92.3487Z" fill="#C2C2C4"/>
<path d="M186.477 97.0957H178.15V102.258H186.477V97.0957Z" fill="#BABABA"/>
<path d="M193.606 92.2013C193.606 92.2013 192.193 91.7305 192.078 91.3801C191.963 91.0297 191.492 89.0259 192.428 89.0259H200.433C200.433 89.0259 201.725 91.1447 200.082 91.6155C198.44 92.0863 199.847 92.9075 200.318 92.9075C200.789 92.9075 201.845 92.9075 202.081 93.4934C202.316 94.0792 202.3 106.425 202.3 106.425H190.43V94.4405C190.427 94.27 190.459 94.1007 190.522 93.9426C190.586 93.7845 190.681 93.6408 190.802 93.5203C190.923 93.3997 191.066 93.3046 191.224 93.2407C191.382 93.1769 191.552 93.1455 191.722 93.1484C193.014 93.143 193.956 92.7926 193.606 92.2013Z" fill="#F2F2F2"/>
<path d="M200.509 96.9424H192.182V102.105H200.509V96.9424Z" fill="#BABABA"/>
<path d="M343.326 88.6643H275.537V130.065H343.326V88.6643Z" fill="#C2C2C4"/>
<path d="M350.586 113.395C352.218 113.395 353.542 112.071 353.542 110.438C353.542 108.805 352.218 107.482 350.586 107.482C348.953 107.482 347.629 108.805 347.629 110.438C347.629 112.071 348.953 113.395 350.586 113.395Z" fill="#C2C2C4"/>
<path d="M320.808 115.858C320.808 115.858 319.396 115.387 319.281 115.037C319.166 114.686 318.695 112.682 319.631 112.682H327.635C327.635 112.682 328.927 114.801 327.285 115.272C325.642 115.743 327.05 116.564 327.52 116.564C327.991 116.564 329.048 116.564 329.283 117.15C329.519 117.736 329.502 130.081 329.502 130.081H317.633V118.092C317.63 117.921 317.661 117.752 317.725 117.594C317.789 117.435 317.884 117.292 318.005 117.171C318.125 117.051 318.269 116.956 318.427 116.892C318.585 116.828 318.754 116.797 318.925 116.799C320.206 116.799 321.148 116.444 320.808 115.858Z" fill="#BABABA"/>
<path d="M327.696 120.599H319.368V125.762H327.696V120.599Z" fill="#F5F5FC"/>
<g clip-path="url(#clip1_397_905)">
<mask id="mask0_397_905" style="mask-type:luminance" maskUnits="userSpaceOnUse" x="-224" y="-80" width="886" height="499">
<path d="M661.3 -79.2744H-223.52V418.435H661.3V-79.2744Z" fill="white"/>
</mask>
<g mask="url(#mask0_397_905)">
<mask id="mask1_397_905" style="mask-type:luminance" maskUnits="userSpaceOnUse" x="-224" y="-80" width="886" height="499">
<path d="M661.3 -79.2744H-223.52V418.435H661.3V-79.2744Z" fill="white"/>
</mask>
<g mask="url(#mask1_397_905)">
<path d="M266.72 295.308L257.174 295.394C257.174 295.394 253.036 302.878 250.981 306.88C250.853 307.137 250.482 307.779 250.225 308.243C249.906 308.942 249.666 309.674 249.511 310.426C248.755 314.343 249.233 317.917 251.837 320.415C254.691 323.147 256.831 325.544 261.283 322.726C265.735 319.908 266.898 317.732 266.991 310.99C267.084 304.248 266.756 295.294 266.756 295.294" fill="#333146"/>
<path d="M218.112 295.8L209.401 299.689C209.401 299.689 208.595 308.207 208.317 312.695C208.317 312.987 208.217 313.722 208.167 314.25C208.149 315.019 208.219 315.787 208.374 316.54C209.244 320.429 211.113 323.518 214.495 324.759C218.205 326.115 221.13 327.456 224.077 323.097C227.023 318.738 227.216 316.255 224.598 310.062C221.979 303.869 218.112 295.793 218.112 295.793" fill="#333146"/>
</g>
<path d="M220.217 85.4541L247.556 80.2103C247.556 80.2103 249.839 68.7951 249.154 66.7689C248.47 64.7427 247.827 60.2836 243.953 58.921C240.079 57.5583 234.871 46.6568 221.879 55.318C208.887 63.9793 215.893 74.2958 215.893 74.2958L220.217 85.4541Z" fill="#22213D"/>
<path d="M239.523 62.5879C239.523 62.5879 225.903 67.846 222.807 69.1374C219.71 70.4287 218.034 74.1672 218.034 74.1672C218.034 74.1672 216.507 73.2611 216.507 75.8438C216.507 78.4265 217.777 84.2411 218.697 85.7251C220.287 88.2341 221.736 90.8304 223.035 93.5017C224.291 96.1628 224.012 100.172 223.713 101.649C223.142 104.432 210.378 123.916 210.378 123.916L215.109 129.431L220.402 134.104L257.616 131.25C257.616 131.25 244.66 105.88 242.633 101.599C241.72 99.6801 242.691 95.0213 243.226 92.6455C243.711 90.4695 244.774 87.737 245.808 86.9379C246.843 86.1389 248.662 82.5502 248.662 80.9949C248.662 79.4396 248.962 74.5239 247.628 75.8295C247.271 76.1791 245.487 73.3967 244.981 71.0708C244.11 67.7347 242.198 64.7631 239.523 62.5879Z" fill="#FFC9AF"/>
<path d="M185.294 202.303C185.294 202.303 174.021 212.42 174.021 216.693C174.021 220.967 175.962 232.246 179.657 238.86C183.353 245.474 206.055 295.75 208.788 299.624C209.259 300.295 218.969 297.598 218.969 297.598C218.969 297.598 214.467 276.972 213.689 272.306C212.911 267.641 201.667 240.03 201.667 237.305C201.667 234.579 203.608 230.691 209.836 229.528C216.065 228.365 229.278 226.803 233.944 228.358C238.61 229.913 258.743 229.714 262.311 234.194C264.572 237.083 262.311 240.365 259.978 251.317C257.645 262.268 259.2 277.393 257.259 282.066C255.319 286.74 255.447 296.799 256.403 296.863C259.007 297.028 266.056 297.627 266.791 297.106C268.082 296.186 275.545 279.519 276.829 276.687C278.856 272.235 285.255 247.842 286.033 241.621C286.81 235.4 290.699 224.12 289.921 221.009C289.143 217.899 272.035 198.843 259.2 196.117C246.365 193.392 206.697 190.288 202.031 193.399C197.365 196.51 185.294 202.303 185.294 202.303Z" fill="#527FED"/>
<path opacity="0.1" d="M217.806 292.24C217.806 292.24 214.274 274.789 213.268 270.63C212.12 265.885 202.987 244.482 201.632 237.305C200.319 230.391 196.388 239.823 197.558 246.437C198.728 253.051 205.335 265.101 205.72 270.937C206.105 276.773 217.806 292.24 217.806 292.24Z" fill="black"/>
<mask id="mask2_397_905" style="mask-type:luminance" maskUnits="userSpaceOnUse" x="173" y="103" width="123" height="91">
<path d="M253.499 103.776C247.792 104.396 245.309 104.967 244.417 105.245C243.431 107.118 242.328 108.927 241.114 110.66C238.153 114.492 236.74 119.35 234.893 119.493C232.481 119.678 226.909 111.081 224.041 109.034C222.186 107.707 221.993 107.143 220.966 106.686L204.742 107.443C203.392 107.566 202.087 107.989 200.92 108.68C199.754 109.371 198.756 110.313 198 111.438C190.559 122.596 173.885 155.672 173.372 163.848C173.001 169.813 186.513 178.959 190.302 179.872C191.843 180.243 194.54 165.56 195.439 164.248L189.774 162.493C191.688 158.289 193.916 154.234 196.438 150.364C197.151 149.308 203.679 139.213 204.435 135.802C204.821 139.134 204.981 142.488 204.913 145.841C204.749 149.922 205.727 154.266 205.727 157.291C205.727 160.317 207.817 169.977 205.605 175.42C203.394 180.864 200.162 193.463 200.162 193.463L256.003 193.164C256.003 193.164 258.565 172.474 259.371 164.233C259.167 161.706 259.11 159.169 259.2 156.635C259.414 146.383 259.485 134.903 259.043 133.091C258.329 130.195 274.981 152.932 278.713 159.154C280.261 161.736 259.021 166.288 257.266 168.3C255.511 170.312 259.057 176.005 259.057 176.005C259.057 176.005 296.121 171.496 295.9 165.824C295.678 160.152 276.037 117.11 267.804 109.612C262.689 104.946 264.008 106.365 260.883 104.996C259.093 104.218 259.328 104.161 255.718 103.883" fill="white"/>
</mask>
<g mask="url(#mask2_397_905)">
<path d="M296.121 101.471H173.001V193.435H296.121V101.471Z" fill="#DA2032"/>
</g>
<path opacity="0.07" d="M223.549 106.094C222.892 105.231 220.994 106.551 222.707 103.954C225.56 99.6088 223.028 92.9595 223.028 92.9595C223.028 92.9595 224.455 95.9845 229.449 95.5778C234.443 95.1712 235.292 93.7015 229.791 99.5161C224.291 105.331 222.7 105.152 223.534 106.123" fill="black"/>
<mask id="mask3_397_905" style="mask-type:luminance" maskUnits="userSpaceOnUse" x="-224" y="-80" width="886" height="499">
<path d="M661.3 -79.2744H-223.52V418.435H661.3V-79.2744Z" fill="white"/>
</mask>
<g mask="url(#mask3_397_905)">
<g opacity="0.07">
<mask id="mask4_397_905" style="mask-type:luminance" maskUnits="userSpaceOnUse" x="179" y="206" width="98" height="29">
<path d="M276.344 206.056H179.557V234.815H276.344V206.056Z" fill="white"/>
</mask>
<g mask="url(#mask4_397_905)">
<path d="M190.545 206.262L268.732 205.042C268.732 205.042 252.322 213.532 254.741 218.048C257.916 223.999 251.545 230.662 242.569 229.563C234.978 228.636 233.409 227.081 228.7 227.48C216.493 228.515 208.103 227.801 206.89 225.946C196.823 210.486 190.566 206.262 190.566 206.262" fill="black"/>
</g>
</g>
<g opacity="0.07">
<mask id="mask5_397_905" style="mask-type:luminance" maskUnits="userSpaceOnUse" x="203" y="111" width="20" height="50">
<path d="M222.058 111.709H203.644V160.017H222.058V111.709Z" fill="white"/>
</mask>
<g mask="url(#mask5_397_905)">
<path d="M208.944 133.633C210.286 136.045 211.577 137.386 210.785 139.469C209.223 143.579 208.859 148.445 213.71 152.347C216.985 154.98 216.4 159.161 218.89 159.196C220.816 160.331 215.166 159.995 215.166 159.995H209.515L205.948 159.796C205.991 159.004 204.87 148.516 204.92 147.082C205.099 142.031 205.199 139.07 204.792 136.858C204.079 133.12 204.285 134.525 205.898 131.907C206.49 130.958 208.281 132.77 208.966 133.64" fill="black"/>
</g>
</g>
</g>
<mask id="mask6_397_905" style="mask-type:luminance" maskUnits="userSpaceOnUse" x="-224" y="-80" width="886" height="499">
<path d="M661.3 -79.2744H-223.52V418.435H661.3V-79.2744Z" fill="white"/>
</mask>
<g mask="url(#mask6_397_905)">
<path d="M188.048 163.691C188.048 163.691 187.991 160.287 191.344 160.123C194.697 159.959 265.971 160.066 265.971 160.066C265.971 160.066 269.103 160.437 269.21 162.991C269.317 165.546 269.317 203.173 269.317 203.173C269.326 203.571 269.253 203.967 269.103 204.336C268.953 204.704 268.729 205.039 268.445 205.317C268.161 205.596 267.823 205.814 267.451 205.957C267.079 206.1 266.682 206.165 266.284 206.148C263.202 206.205 190.545 206.255 190.545 206.255C190.545 206.255 187.834 205.542 187.883 202.852C187.933 200.162 188.048 163.683 188.048 163.683" fill="white"/>
</g>
<mask id="mask7_397_905" style="mask-type:luminance" maskUnits="userSpaceOnUse" x="225" y="180" width="7" height="7">
<path d="M225.81 183.154C225.81 183.764 225.991 184.36 226.33 184.867C226.669 185.374 227.151 185.769 227.715 186.002C228.278 186.235 228.898 186.295 229.496 186.176C230.094 186.056 230.644 185.762 231.074 185.33C231.505 184.899 231.798 184.349 231.916 183.751C232.034 183.152 231.972 182.532 231.738 181.969C231.503 181.406 231.107 180.925 230.6 180.587C230.092 180.25 229.495 180.07 228.885 180.072C228.481 180.072 228.08 180.151 227.707 180.306C227.333 180.461 226.994 180.688 226.708 180.975C226.423 181.261 226.196 181.601 226.042 181.975C225.888 182.349 225.809 182.749 225.81 183.154Z" fill="white"/>
</mask>
<g mask="url(#mask7_397_905)">
<path d="M231.967 180.072H225.81V186.229H231.967V180.072Z" fill="#F6C32C"/>
</g>
</g>
</g>
</g>
<defs>
<clipPath id="clip0_397_905">
<rect width="417" height="381" fill="white"/>
</clipPath>
<clipPath id="clip1_397_905">
<rect width="123.122" height="274.072" fill="white" transform="translate(173 52)"/>
</clipPath>
</defs>
</svg>
